<?xml version="1.0" encoding="UTF-8" standalone="no"?>
<!-- Created with Inkscape (http://www.inkscape.org/) -->

<svg
   xmlns:dc="http://purl.org/dc/elements/1.1/"
   xmlns:cc="http://creativecommons.org/ns#"
   xmlns:rdf="http://www.w3.org/1999/02/22-rdf-syntax-ns#"
   xmlns:svg="http://www.w3.org/2000/svg"
   xmlns="http://www.w3.org/2000/svg"
   xmlns:sodipodi="http://sodipodi.sourceforge.net/DTD/sodipodi-0.dtd"
   xmlns:inkscape="http://www.inkscape.org/namespaces/inkscape"
   width="20"
   height="20"
   viewBox="0 0 20 20"
   id="svg4556"
   version="1.1"
   inkscape:version="0.91 r13725"
   inkscape:export-filename="C:\Users\weiweicu\Dropbox\Work\Git\PowerBI\Trajectory\assets\icon.png"
   inkscape:export-xdpi="89.872284"
   inkscape:export-ydpi="89.872284"
   sodipodi:docname="icon.svg">
  <defs
     id="defs4558">
    <inkscape:path-effect
       effect="skeletal"
       id="path-effect3431"
       is_visible="true"
       pattern="m 0,1037.3622 c 0,-2.76 2.24,-5 5,-5 2.76,0 5,2.24 5,5 0,2.76 -2.24,5 -5,5 -2.76,0 -5,-2.24 -5,-5 z"
       copytype="single_stretched"
       prop_scale="1"
       scale_y_rel="false"
       spacing="0"
       normal_offset="0"
       tang_offset="0"
       prop_units="false"
       vertical_pattern="false"
       fuse_tolerance="0" />
    <inkscape:path-effect
       effect="skeletal"
       id="path-effect3427"
       is_visible="true"
       pattern="m 0,1037.3622 c 0,-2.76 2.24,-5 5,-5 2.76,0 5,2.24 5,5 0,2.76 -2.24,5 -5,5 -2.76,0 -5,-2.24 -5,-5 z"
       copytype="single_stretched"
       prop_scale="1"
       scale_y_rel="false"
       spacing="0"
       normal_offset="0"
       tang_offset="0"
       prop_units="false"
       vertical_pattern="false"
       fuse_tolerance="0" />
    <inkscape:path-effect
       effect="skeletal"
       id="path-effect3423"
       is_visible="true"
       pattern="m 0,1037.3622 c 0,-2.76 2.24,-5 5,-5 2.76,0 5,2.24 5,5 0,2.76 -2.24,5 -5,5 -2.76,0 -5,-2.24 -5,-5 z"
       copytype="single_stretched"
       prop_scale="1"
       scale_y_rel="false"
       spacing="0"
       normal_offset="0"
       tang_offset="0"
       prop_units="false"
       vertical_pattern="false"
       fuse_tolerance="0" />
  </defs>
  <sodipodi:namedview
     id="base"
     pagecolor="#ffffff"
     bordercolor="#666666"
     borderopacity="1.0"
     inkscape:pageopacity="0.0"
     inkscape:pageshadow="2"
     inkscape:zoom="22.4"
     inkscape:cx="-6.4756506"
     inkscape:cy="7.0815425"
     inkscape:document-units="px"
     inkscape:current-layer="layer1"
     showgrid="false"
     units="px"
     inkscape:window-width="1920"
     inkscape:window-height="1137"
     inkscape:window-x="-8"
     inkscape:window-y="-8"
     inkscape:window-maximized="1" />
  <metadata
     id="metadata4561">
    <rdf:RDF>
      <cc:Work
         rdf:about="">
        <dc:format>image/svg+xml</dc:format>
        <dc:type
           rdf:resource="http://purl.org/dc/dcmitype/StillImage" />
        <dc:title />
      </cc:Work>
    </rdf:RDF>
  </metadata>
  <g
     inkscape:label="Layer 1"
     inkscape:groupmode="layer"
     id="layer1"
     transform="translate(0,-1032.3622)">
    <path
       inkscape:connector-curvature="0"
       d="m 15.662325,1039.9255 c 1.869369,0 3.381288,1.5645 3.381288,3.4989 0,2.6242 -3.381288,6.498 -3.381288,6.498 0,0 -3.381289,-3.8738 -3.381289,-6.498 0,-1.9344 1.511919,-3.4989 3.381289,-3.4989 z m 0,4.7485 c 0.666597,0 1.207603,-0.5598 1.207603,-1.2496 0,-0.6898 -0.541006,-1.2496 -1.207603,-1.2496 -0.666597,0 -1.207604,0.5598 -1.207604,1.2496 0,0.6898 0.541007,1.2496 1.207604,1.2496 z"
       id="path3354"
       style="fill:#ff9955" />
    <path
       inkscape:connector-curvature="0"
       style="fill:none"
       d="m -1.0178573,1039.3712 11.2517003,0 0,12 -11.2517003,0 z"
       id="path3356" />
    <path
       inkscape:connector-curvature="0"
       d="m 4.3884872,1033.4811 c 1.8693698,0 3.3812889,1.5645 3.3812889,3.4989 0,2.6242 -3.3812889,6.498 -3.3812889,6.498 0,0 -3.381289,-3.8738 -3.381289,-6.498 0,-1.9344 1.5119192,-3.4989 3.381289,-3.4989 z m 0,4.7485 c 0.6665966,0 1.2076029,-0.5598 1.2076029,-1.2496 0,-0.6898 -0.5410063,-1.2496 -1.2076029,-1.2496 -0.6665976,0 -1.2076037,0.5598 -1.2076037,1.2496 0,0.6898 0.5410061,1.2496 1.2076037,1.2496 z"
       id="path3354-5"
       style="fill:#ff9955" />
    <path
       inkscape:connector-curvature="0"
       style="fill:none"
       d="m 9.8822279,1032.2551 11.2517001,0 0,12 -11.2517001,0 z"
       id="path3356-8" />
    <path
       style="fill:#f9f9f9;stroke:#afc6e9;stroke-width:1.47411609;stroke-linecap:round;stroke-miterlimit:4;stroke-dasharray:none"
       id="path3435"
       sodipodi:type="arc"
       sodipodi:cx="-9.2404423"
       sodipodi:cy="1045.955"
       sodipodi:rx="1.5927998"
       sodipodi:ry="1.6482137"
       sodipodi:start="1.5707963"
       sodipodi:end="4.7049264"
       sodipodi:open="true"
       d="m -9.2404422,1047.6032 a 1.5927998,1.6482137 0 0 1 -1.5927888,-1.6421 1.5927998,1.6482137 0 0 1 1.5809024,-1.6543"
       transform="scale(-1,1)" />
    <path
       style="fill:#f9f9f9;stroke:#afc6e9;stroke-width:1.47411609;stroke-linecap:round;stroke-miterlimit:4;stroke-dasharray:none"
       id="path3435-9"
       sodipodi:type="arc"
       sodipodi:cx="-3.0102391"
       sodipodi:cy="1049.146"
       sodipodi:rx="1.4492861"
       sodipodi:ry="1.4997072"
       sodipodi:start="4.712389"
       sodipodi:end="1.5707963"
       d="m -3.0102391,1047.6463 a 1.4492861,1.4997072 0 0 1 1.4492861,1.4997 1.4492861,1.4997072 0 0 1 -1.4492861,1.4997"
       sodipodi:open="true"
       transform="scale(-1,1)" />
    <path
       style="fill:none;fill-rule:evenodd;stroke:#afc6e9;stroke-width:1.47411609;stroke-linecap:round;stroke-linejoin:miter;stroke-miterlimit:4;stroke-dasharray:none;stroke-opacity:1"
       d="m 18.160328,1050.6632 -15.036365,0"
       id="path4252"
       inkscape:connector-curvature="0" />
    <path
       style="fill:none;fill-rule:evenodd;stroke:#afc6e9;stroke-width:1.44983196;stroke-linecap:round;stroke-linejoin:miter;stroke-miterlimit:4;stroke-dasharray:none;stroke-opacity:1"
       d="m 9.0605421,1047.6285 -6.2388458,0"
       id="path4252-4"
       inkscape:connector-curvature="0" />
    <path
       style="fill:none;fill-rule:evenodd;stroke:#afc6e9;stroke-width:1.47411609;stroke-linecap:round;stroke-linejoin:miter;stroke-miterlimit:4;stroke-dasharray:none;stroke-opacity:1"
       d="m 8.7947263,1044.2813 -7.0442032,0"
       id="path4252-4-3"
       inkscape:connector-curvature="0" />
  </g>
</svg>
